<mxfile host="app.diagrams.net" agent="Mozilla/5.0 (Windows NT 10.0; Win64; x64) AppleWebKit/537.36 (KHTML, like Gecko) Chrome/129.0.0.0 Safari/537.36" version="24.7.16">
  <diagram name="Page-1" id="nTVCncb1lK0_4AxIsTNy">
    <mxGraphModel dx="2035" dy="1087" grid="1" gridSize="10" guides="1" tooltips="1" connect="1" arrows="1" fold="1" page="1" pageScale="1" pageWidth="850" pageHeight="1100" math="0" shadow="0">
      <root>
        <mxCell id="0" />
        <mxCell id="1" parent="0" />
        <mxCell id="e-Gf6SVlYSggyfmZijjQ-11" style="edgeStyle=orthogonalEdgeStyle;rounded=0;orthogonalLoop=1;jettySize=auto;html=1;exitX=0.5;exitY=0.5;exitDx=0;exitDy=0;exitPerimeter=0;entryX=0;entryY=0.5;entryDx=0;entryDy=0;" edge="1" parent="1" source="e-Gf6SVlYSggyfmZijjQ-1" target="e-Gf6SVlYSggyfmZijjQ-6">
          <mxGeometry relative="1" as="geometry" />
        </mxCell>
        <mxCell id="e-Gf6SVlYSggyfmZijjQ-12" style="edgeStyle=orthogonalEdgeStyle;rounded=0;orthogonalLoop=1;jettySize=auto;html=1;exitX=0.5;exitY=0.5;exitDx=0;exitDy=0;exitPerimeter=0;entryX=0;entryY=0.5;entryDx=0;entryDy=0;" edge="1" parent="1" source="e-Gf6SVlYSggyfmZijjQ-1" target="e-Gf6SVlYSggyfmZijjQ-2">
          <mxGeometry relative="1" as="geometry" />
        </mxCell>
        <mxCell id="e-Gf6SVlYSggyfmZijjQ-38" style="edgeStyle=orthogonalEdgeStyle;rounded=0;orthogonalLoop=1;jettySize=auto;html=1;exitX=0.5;exitY=0.5;exitDx=0;exitDy=0;exitPerimeter=0;entryX=0;entryY=0.5;entryDx=0;entryDy=0;" edge="1" parent="1" source="e-Gf6SVlYSggyfmZijjQ-1" target="e-Gf6SVlYSggyfmZijjQ-30">
          <mxGeometry relative="1" as="geometry" />
        </mxCell>
        <mxCell id="e-Gf6SVlYSggyfmZijjQ-39" style="edgeStyle=orthogonalEdgeStyle;rounded=0;orthogonalLoop=1;jettySize=auto;html=1;exitX=0.5;exitY=0.5;exitDx=0;exitDy=0;exitPerimeter=0;entryX=0;entryY=0.5;entryDx=0;entryDy=0;" edge="1" parent="1" source="e-Gf6SVlYSggyfmZijjQ-1" target="e-Gf6SVlYSggyfmZijjQ-27">
          <mxGeometry relative="1" as="geometry" />
        </mxCell>
        <mxCell id="e-Gf6SVlYSggyfmZijjQ-1" value="Actor" style="shape=umlActor;verticalLabelPosition=bottom;verticalAlign=top;html=1;outlineConnect=0;" vertex="1" parent="1">
          <mxGeometry x="10" y="200" width="30" height="60" as="geometry" />
        </mxCell>
        <mxCell id="e-Gf6SVlYSggyfmZijjQ-2" value="Create a task" style="ellipse;whiteSpace=wrap;html=1;" vertex="1" parent="1">
          <mxGeometry x="140" y="60" width="120" height="80" as="geometry" />
        </mxCell>
        <mxCell id="e-Gf6SVlYSggyfmZijjQ-4" value="Edit a task" style="ellipse;whiteSpace=wrap;html=1;" vertex="1" parent="1">
          <mxGeometry x="140" y="180" width="120" height="80" as="geometry" />
        </mxCell>
        <mxCell id="e-Gf6SVlYSggyfmZijjQ-5" value="Complete task" style="ellipse;whiteSpace=wrap;html=1;" vertex="1" parent="1">
          <mxGeometry x="140" y="300" width="120" height="80" as="geometry" />
        </mxCell>
        <mxCell id="e-Gf6SVlYSggyfmZijjQ-6" value="Delete task" style="ellipse;whiteSpace=wrap;html=1;" vertex="1" parent="1">
          <mxGeometry x="140" y="430" width="120" height="80" as="geometry" />
        </mxCell>
        <mxCell id="e-Gf6SVlYSggyfmZijjQ-9" style="edgeStyle=orthogonalEdgeStyle;rounded=0;orthogonalLoop=1;jettySize=auto;html=1;exitX=0.5;exitY=0.5;exitDx=0;exitDy=0;exitPerimeter=0;entryX=-0.003;entryY=0.656;entryDx=0;entryDy=0;entryPerimeter=0;" edge="1" parent="1" source="e-Gf6SVlYSggyfmZijjQ-1" target="e-Gf6SVlYSggyfmZijjQ-4">
          <mxGeometry relative="1" as="geometry" />
        </mxCell>
        <mxCell id="e-Gf6SVlYSggyfmZijjQ-10" style="edgeStyle=orthogonalEdgeStyle;rounded=0;orthogonalLoop=1;jettySize=auto;html=1;exitX=0.5;exitY=0.5;exitDx=0;exitDy=0;exitPerimeter=0;entryX=-0.003;entryY=0.678;entryDx=0;entryDy=0;entryPerimeter=0;" edge="1" parent="1" source="e-Gf6SVlYSggyfmZijjQ-1" target="e-Gf6SVlYSggyfmZijjQ-5">
          <mxGeometry relative="1" as="geometry" />
        </mxCell>
        <mxCell id="e-Gf6SVlYSggyfmZijjQ-13" value="Unmark task as complete" style="ellipse;whiteSpace=wrap;html=1;" vertex="1" parent="1">
          <mxGeometry x="370" y="300" width="120" height="80" as="geometry" />
        </mxCell>
        <mxCell id="e-Gf6SVlYSggyfmZijjQ-14" value="" style="endArrow=none;dashed=1;html=1;dashPattern=1 3;strokeWidth=2;rounded=0;entryX=0;entryY=0.5;entryDx=0;entryDy=0;exitX=1;exitY=0.5;exitDx=0;exitDy=0;" edge="1" parent="1" source="e-Gf6SVlYSggyfmZijjQ-5" target="e-Gf6SVlYSggyfmZijjQ-13">
          <mxGeometry width="50" height="50" relative="1" as="geometry">
            <mxPoint x="250" y="350" as="sourcePoint" />
            <mxPoint x="300" y="300" as="targetPoint" />
          </mxGeometry>
        </mxCell>
        <mxCell id="e-Gf6SVlYSggyfmZijjQ-15" value="Extends" style="text;html=1;align=center;verticalAlign=middle;resizable=0;points=[];autosize=1;strokeColor=none;fillColor=none;" vertex="1" parent="1">
          <mxGeometry x="280" y="310" width="70" height="30" as="geometry" />
        </mxCell>
        <mxCell id="e-Gf6SVlYSggyfmZijjQ-16" value="Edit desc." style="ellipse;whiteSpace=wrap;html=1;" vertex="1" parent="1">
          <mxGeometry x="305" y="160" width="85" height="40" as="geometry" />
        </mxCell>
        <mxCell id="e-Gf6SVlYSggyfmZijjQ-17" value="Edit date" style="ellipse;whiteSpace=wrap;html=1;" vertex="1" parent="1">
          <mxGeometry x="400" y="200" width="85" height="40" as="geometry" />
        </mxCell>
        <mxCell id="e-Gf6SVlYSggyfmZijjQ-18" value="Edit title" style="ellipse;whiteSpace=wrap;html=1;" vertex="1" parent="1">
          <mxGeometry x="305" y="240" width="85" height="40" as="geometry" />
        </mxCell>
        <mxCell id="e-Gf6SVlYSggyfmZijjQ-19" value="" style="endArrow=none;dashed=1;html=1;dashPattern=1 3;strokeWidth=2;rounded=0;entryX=0;entryY=0.5;entryDx=0;entryDy=0;exitX=1;exitY=0.5;exitDx=0;exitDy=0;" edge="1" parent="1" source="e-Gf6SVlYSggyfmZijjQ-4" target="e-Gf6SVlYSggyfmZijjQ-17">
          <mxGeometry width="50" height="50" relative="1" as="geometry">
            <mxPoint x="290" y="260" as="sourcePoint" />
            <mxPoint x="340" y="210" as="targetPoint" />
          </mxGeometry>
        </mxCell>
        <mxCell id="e-Gf6SVlYSggyfmZijjQ-20" value="" style="endArrow=none;dashed=1;html=1;dashPattern=1 3;strokeWidth=2;rounded=0;exitX=1;exitY=0.5;exitDx=0;exitDy=0;entryX=0;entryY=0.5;entryDx=0;entryDy=0;" edge="1" parent="1" source="e-Gf6SVlYSggyfmZijjQ-4" target="e-Gf6SVlYSggyfmZijjQ-16">
          <mxGeometry width="50" height="50" relative="1" as="geometry">
            <mxPoint x="250" y="210" as="sourcePoint" />
            <mxPoint x="300" y="160" as="targetPoint" />
          </mxGeometry>
        </mxCell>
        <mxCell id="e-Gf6SVlYSggyfmZijjQ-21" value="" style="endArrow=none;dashed=1;html=1;dashPattern=1 3;strokeWidth=2;rounded=0;exitX=1;exitY=0.5;exitDx=0;exitDy=0;entryX=0;entryY=0.5;entryDx=0;entryDy=0;" edge="1" parent="1" source="e-Gf6SVlYSggyfmZijjQ-4" target="e-Gf6SVlYSggyfmZijjQ-18">
          <mxGeometry width="50" height="50" relative="1" as="geometry">
            <mxPoint x="250" y="350" as="sourcePoint" />
            <mxPoint x="300" y="300" as="targetPoint" />
          </mxGeometry>
        </mxCell>
        <mxCell id="e-Gf6SVlYSggyfmZijjQ-22" value="includes" style="text;html=1;align=center;verticalAlign=middle;resizable=0;points=[];autosize=1;strokeColor=none;fillColor=none;" vertex="1" parent="1">
          <mxGeometry x="260" y="198" width="70" height="30" as="geometry" />
        </mxCell>
        <mxCell id="e-Gf6SVlYSggyfmZijjQ-23" value="View existing task" style="ellipse;whiteSpace=wrap;html=1;" vertex="1" parent="1">
          <mxGeometry x="320" y="30" width="120" height="80" as="geometry" />
        </mxCell>
        <mxCell id="e-Gf6SVlYSggyfmZijjQ-25" value="" style="endArrow=none;dashed=1;html=1;dashPattern=1 3;strokeWidth=2;rounded=0;entryX=0;entryY=0.5;entryDx=0;entryDy=0;exitX=1;exitY=0.5;exitDx=0;exitDy=0;" edge="1" parent="1" source="e-Gf6SVlYSggyfmZijjQ-2" target="e-Gf6SVlYSggyfmZijjQ-23">
          <mxGeometry width="50" height="50" relative="1" as="geometry">
            <mxPoint x="260" y="80" as="sourcePoint" />
            <mxPoint x="310" y="30" as="targetPoint" />
          </mxGeometry>
        </mxCell>
        <mxCell id="e-Gf6SVlYSggyfmZijjQ-26" value="extends" style="text;html=1;align=center;verticalAlign=middle;resizable=0;points=[];autosize=1;strokeColor=none;fillColor=none;" vertex="1" parent="1">
          <mxGeometry x="260" y="85" width="70" height="30" as="geometry" />
        </mxCell>
        <mxCell id="e-Gf6SVlYSggyfmZijjQ-27" value="Create account" style="ellipse;whiteSpace=wrap;html=1;" vertex="1" parent="1">
          <mxGeometry x="140" y="690" width="120" height="80" as="geometry" />
        </mxCell>
        <mxCell id="e-Gf6SVlYSggyfmZijjQ-28" value="Manage account" style="ellipse;whiteSpace=wrap;html=1;" vertex="1" parent="1">
          <mxGeometry x="140" y="790" width="120" height="80" as="geometry" />
        </mxCell>
        <mxCell id="e-Gf6SVlYSggyfmZijjQ-30" value="Filter task" style="ellipse;whiteSpace=wrap;html=1;" vertex="1" parent="1">
          <mxGeometry x="140" y="540" width="120" height="80" as="geometry" />
        </mxCell>
        <mxCell id="e-Gf6SVlYSggyfmZijjQ-31" value="" style="endArrow=none;dashed=1;html=1;dashPattern=1 3;strokeWidth=2;rounded=0;exitX=1;exitY=0.5;exitDx=0;exitDy=0;" edge="1" parent="1" source="e-Gf6SVlYSggyfmZijjQ-6">
          <mxGeometry width="50" height="50" relative="1" as="geometry">
            <mxPoint x="310" y="520" as="sourcePoint" />
            <mxPoint x="360" y="470" as="targetPoint" />
          </mxGeometry>
        </mxCell>
        <mxCell id="e-Gf6SVlYSggyfmZijjQ-32" value="Confirm delete" style="ellipse;whiteSpace=wrap;html=1;" vertex="1" parent="1">
          <mxGeometry x="355" y="450" width="85" height="40" as="geometry" />
        </mxCell>
        <mxCell id="e-Gf6SVlYSggyfmZijjQ-33" value="includes" style="text;html=1;align=center;verticalAlign=middle;resizable=0;points=[];autosize=1;strokeColor=none;fillColor=none;" vertex="1" parent="1">
          <mxGeometry x="280" y="440" width="70" height="30" as="geometry" />
        </mxCell>
        <mxCell id="e-Gf6SVlYSggyfmZijjQ-34" value="" style="endArrow=none;dashed=1;html=1;dashPattern=1 3;strokeWidth=2;rounded=0;" edge="1" parent="1">
          <mxGeometry width="50" height="50" relative="1" as="geometry">
            <mxPoint x="260" y="570" as="sourcePoint" />
            <mxPoint x="370" y="540" as="targetPoint" />
          </mxGeometry>
        </mxCell>
        <mxCell id="e-Gf6SVlYSggyfmZijjQ-35" value="" style="endArrow=none;dashed=1;html=1;dashPattern=1 3;strokeWidth=2;rounded=0;exitX=0.98;exitY=0.701;exitDx=0;exitDy=0;exitPerimeter=0;" edge="1" parent="1" source="e-Gf6SVlYSggyfmZijjQ-30">
          <mxGeometry width="50" height="50" relative="1" as="geometry">
            <mxPoint x="280" y="620" as="sourcePoint" />
            <mxPoint x="370" y="596" as="targetPoint" />
          </mxGeometry>
        </mxCell>
        <mxCell id="e-Gf6SVlYSggyfmZijjQ-36" value="Add filter" style="ellipse;whiteSpace=wrap;html=1;" vertex="1" parent="1">
          <mxGeometry x="370" y="520" width="85" height="40" as="geometry" />
        </mxCell>
        <mxCell id="e-Gf6SVlYSggyfmZijjQ-37" value="Remove filter" style="ellipse;whiteSpace=wrap;html=1;" vertex="1" parent="1">
          <mxGeometry x="370" y="580" width="85" height="40" as="geometry" />
        </mxCell>
        <mxCell id="e-Gf6SVlYSggyfmZijjQ-42" style="edgeStyle=orthogonalEdgeStyle;rounded=0;orthogonalLoop=1;jettySize=auto;html=1;exitX=0.5;exitY=0.5;exitDx=0;exitDy=0;exitPerimeter=0;entryX=1;entryY=0.5;entryDx=0;entryDy=0;" edge="1" parent="1" source="e-Gf6SVlYSggyfmZijjQ-41" target="e-Gf6SVlYSggyfmZijjQ-27">
          <mxGeometry relative="1" as="geometry" />
        </mxCell>
        <mxCell id="e-Gf6SVlYSggyfmZijjQ-43" style="edgeStyle=orthogonalEdgeStyle;rounded=0;orthogonalLoop=1;jettySize=auto;html=1;exitX=0.5;exitY=0.5;exitDx=0;exitDy=0;exitPerimeter=0;entryX=0.5;entryY=1;entryDx=0;entryDy=0;" edge="1" parent="1" source="e-Gf6SVlYSggyfmZijjQ-41" target="e-Gf6SVlYSggyfmZijjQ-28">
          <mxGeometry relative="1" as="geometry" />
        </mxCell>
        <mxCell id="e-Gf6SVlYSggyfmZijjQ-41" value="Actor" style="shape=umlActor;verticalLabelPosition=bottom;verticalAlign=top;html=1;outlineConnect=0;" vertex="1" parent="1">
          <mxGeometry x="20" y="870" width="30" height="60" as="geometry" />
        </mxCell>
        <mxCell id="e-Gf6SVlYSggyfmZijjQ-44" value="includes" style="text;html=1;align=center;verticalAlign=middle;resizable=0;points=[];autosize=1;strokeColor=none;fillColor=none;" vertex="1" parent="1">
          <mxGeometry x="250" y="568" width="70" height="30" as="geometry" />
        </mxCell>
        <mxCell id="e-Gf6SVlYSggyfmZijjQ-47" value="Admin" style="text;html=1;align=center;verticalAlign=middle;resizable=0;points=[];autosize=1;strokeColor=none;fillColor=none;" vertex="1" parent="1">
          <mxGeometry x="5" y="940" width="60" height="30" as="geometry" />
        </mxCell>
        <mxCell id="e-Gf6SVlYSggyfmZijjQ-48" value="User" style="text;html=1;align=center;verticalAlign=middle;resizable=0;points=[];autosize=1;strokeColor=none;fillColor=none;" vertex="1" parent="1">
          <mxGeometry y="270" width="50" height="30" as="geometry" />
        </mxCell>
      </root>
    </mxGraphModel>
  </diagram>
</mxfile>
